<svg xmlns="http://www.w3.org/2000/svg" viewBox="0 0 500 500" role="img" aria-label="froede logo"><title>froede</title>
<rect width="500" height="500" fill="#1800AD"/>
<path fill="#FFFFFF" d="M101.1 0 398.9 0 A291 291 0 0 1 500 101.1 L500 398.9 A291 291 0 0 1 398.9 500 L101.1 500 A291 291 0 0 1 0 398.9 L0 101.1 A291 291 0 0 1 101.1 0 Z"/>
<path fill="#1800AD" fill-rule="evenodd" d="M 236 29 275 30 318 39 357 56 374 66 396 83 427 116 444 142 453 160 467 203 472 248 468 292 455 335 432 377 410 402 410 303 282 303 282 200 410 200 410 103 90 103 90 200 218 200 218 303 90 303 89 402 73 384 56 358 41 325 33 297 29 272 29 229 33 203 41 175 56 142 70 120 82 105 119 71 143 56 182 39 211 32 236 30 Z"/>
</svg>